<svg width="8" height="10" viewBox="0 0 8 10" fill="none" xmlns="http://www.w3.org/2000/svg">
<path fill-rule="evenodd" clip-rule="evenodd" d="M7.83147 3.80741C7.83147 5.9 6.10515 7.61501 4 7.61501C1.89485 7.61501 0.168532 5.8995 0.168532 3.80741C0.168532 1.7155 1.89485 0 4 0C6.10515 0 7.83147 1.7155 7.83147 3.80741ZM6.6527 3.80741C6.6527 2.34309 5.47343 1.17142 4 1.17142C2.526 1.17142 1.3473 2.34309 1.3473 3.80741C1.3473 5.27192 2.526 6.44359 4 6.44359C5.43166 6.44359 6.61043 5.27192 6.6527 3.80741ZM7.41011 7.28057L8 8.32659L4 10L0 8.32659L0.589383 7.28057L4 8.74458L7.41011 7.28057Z" fill="white"/>
</svg>
