<svg width="12" height="12" viewBox="0 0 12 12" fill="none" xmlns="http://www.w3.org/2000/svg">
<path d="M4.77778 6C4.77778 5.80222 4.8348 5.60888 4.94163 5.44443C5.04846 5.27998 5.2003 5.15181 5.37795 5.07612C5.5556 5.00043 5.75108 4.98063 5.93967 5.01922C6.12826 5.0578 6.3015 5.15304 6.43746 5.29289C6.57343 5.43275 6.66603 5.61093 6.70354 5.80491C6.74105 5.99889 6.7218 6.19996 6.64822 6.38268C6.57463 6.56541 6.45002 6.72159 6.29014 6.83147C6.13026 6.94135 5.94229 7 5.75 7C5.49215 7 5.24486 6.89464 5.06253 6.70711C4.88021 6.51957 4.77778 6.26522 4.77778 6ZM8.52778 7C8.72006 7 8.90803 6.94135 9.06792 6.83147C9.2278 6.72159 9.35241 6.56541 9.42599 6.38268C9.49958 6.19996 9.51883 5.99889 9.48132 5.80491C9.44381 5.61093 9.35121 5.43275 9.21524 5.29289C9.07927 5.15304 8.90604 5.0578 8.71745 5.01922C8.52886 4.98063 8.33337 5.00043 8.15572 5.07612C7.97807 5.15181 7.82623 5.27998 7.7194 5.44443C7.61258 5.60888 7.55556 5.80222 7.55556 6C7.55556 6.26522 7.65799 6.51957 7.84031 6.70711C8.02264 6.89464 8.26993 7 8.52778 7ZM2.97222 7C3.16451 7 3.35248 6.94135 3.51236 6.83147C3.67224 6.72159 3.79685 6.56541 3.87044 6.38268C3.94402 6.19996 3.96328 5.99889 3.92576 5.80491C3.88825 5.61093 3.79565 5.43275 3.65969 5.29289C3.52372 5.15304 3.35049 5.0578 3.16189 5.01922C2.9733 4.98063 2.77782 5.00043 2.60017 5.07612C2.42252 5.15181 2.27068 5.27998 2.16385 5.44443C2.05702 5.60888 2 5.80222 2 6C2 6.13132 2.02515 6.26136 2.07401 6.38268C2.12286 6.50401 2.19448 6.61425 2.28476 6.70711C2.37504 6.79996 2.48221 6.87362 2.60017 6.92388C2.71812 6.97413 2.84455 7 2.97222 7Z" fill="#5F5F5F"/>
</svg>
