<svg width="16" height="16" viewBox="0 0 16 16" fill="none" xmlns="http://www.w3.org/2000/svg">
<path d="M12.8377 9.94061C12.2382 10.305 11.5498 10.4966 10.8483 10.4944C10.2606 10.4897 9.67958 10.3695 9.13828 10.1406C8.7211 10.7296 8.49784 11.4339 8.49953 12.1556V13.9987C8.49969 14.0673 8.48574 14.1351 8.45857 14.1981C8.4314 14.261 8.39157 14.3176 8.34158 14.3645C8.29158 14.4114 8.23248 14.4475 8.16794 14.4706C8.1034 14.4937 8.0348 14.5033 7.96641 14.4987C7.83789 14.4875 7.71835 14.4282 7.63177 14.3326C7.54518 14.2369 7.49795 14.1121 7.49954 13.9831V13.2056L5.08578 10.7919C4.72697 10.9257 4.34749 10.9957 3.96453 10.9987C3.43733 11 2.92 10.8558 2.46953 10.5819C1.10766 9.75436 0.374535 7.84999 0.51641 5.48561C0.523553 5.36329 0.575364 5.24785 0.662006 5.16121C0.748648 5.07457 0.864088 5.02275 0.98641 5.01561C3.35079 4.87624 5.25516 5.60686 6.08016 6.96874C6.40429 7.50254 6.5458 8.12737 6.48328 8.74874C6.4794 8.79688 6.46165 8.84287 6.43218 8.88114C6.40272 8.91941 6.3628 8.94832 6.31725 8.96439C6.2717 8.98045 6.22247 8.98298 6.17551 8.97166C6.12856 8.96034 6.08589 8.93566 6.05266 8.90061L4.85266 7.64436C4.75813 7.55455 4.63225 7.50522 4.50187 7.50689C4.37149 7.50856 4.24692 7.5611 4.15472 7.6533C4.06252 7.7455 4.00998 7.87007 4.00831 8.00045C4.00665 8.13083 4.05597 8.25671 4.14578 8.35124L7.51329 11.8044C7.51704 11.7556 7.52141 11.7069 7.52641 11.6587C7.63575 10.7317 8.04482 9.86573 8.69141 9.19249L11.8533 5.85124C11.9471 5.7575 11.9998 5.63033 11.9999 5.49771C12 5.36508 11.9473 5.23787 11.8536 5.14405C11.7599 5.05023 11.6327 4.99749 11.5001 4.99743C11.3674 4.99737 11.2402 5.05 11.1464 5.14374L8.08391 8.38249C8.05326 8.41496 8.01446 8.43862 7.97157 8.45103C7.92867 8.46343 7.88323 8.46412 7.83998 8.45302C7.79673 8.44192 7.75724 8.41943 7.72561 8.38791C7.69399 8.35638 7.67139 8.31696 7.66016 8.27374C7.36391 7.18124 7.49453 6.09374 8.06016 5.15999C9.17641 3.31749 11.7739 2.33124 15.0089 2.52124C15.1312 2.52838 15.2467 2.58019 15.3333 2.66683C15.42 2.75347 15.4718 2.86891 15.4789 2.99124C15.6664 6.22686 14.6802 8.82436 12.8377 9.94061Z" fill="#03A81E"/>
</svg>
