<svg width="596" height="6" viewBox="0 0 596 6" fill="none" xmlns="http://www.w3.org/2000/svg">
<path d="M4.55247 5.29937C4.34351 5.72803 3.90838 6 3.43149 6C2.50999 6 1.90677 5.03501 2.31044 4.20663L4.01879 0.700925C4.22776 0.272088 4.66303 0 5.14007 0C6.06183 0 6.66518 0.965326 6.26128 1.79388L4.55247 5.29937Z" fill="#D9D9D9"/>
<path d="M9.55247 5.29937C9.34351 5.72803 8.90838 6 8.43149 6C7.50999 6 6.90677 5.03501 7.31044 4.20663L9.01879 0.700925C9.22776 0.272088 9.66303 0 10.1401 0C11.0618 0 11.6652 0.965326 11.2613 1.79388L9.55247 5.29937Z" fill="#D9D9D9"/>
<path d="M14.5525 5.29937C14.3435 5.72803 13.9084 6 13.4315 6C12.51 6 11.9068 5.03501 12.3104 4.20663L14.0188 0.700925C14.2278 0.272088 14.663 0 15.1401 0C16.0618 0 16.6652 0.965326 16.2613 1.79388L14.5525 5.29937Z" fill="#D9D9D9"/>
<path d="M19.5525 5.29937C19.3435 5.72803 18.9084 6 18.4315 6C17.51 6 16.9068 5.03501 17.3104 4.20663L19.0188 0.700925C19.2278 0.272088 19.663 0 20.1401 0C21.0618 0 21.6652 0.965326 21.2613 1.79388L19.5525 5.29937Z" fill="#D9D9D9"/>
<path d="M24.5525 5.29937C24.3435 5.72803 23.9084 6 23.4315 6C22.51 6 21.9068 5.03501 22.3104 4.20663L24.0188 0.700925C24.2278 0.272088 24.663 0 25.1401 0C26.0618 0 26.6652 0.965326 26.2613 1.79388L24.5525 5.29937Z" fill="#D9D9D9"/>
<path d="M29.5525 5.29937C29.3435 5.72803 28.9084 6 28.4315 6C27.51 6 26.9068 5.03501 27.3104 4.20663L29.0188 0.700925C29.2278 0.272088 29.663 0 30.1401 0C31.0618 0 31.6652 0.965326 31.2613 1.79388L29.5525 5.29937Z" fill="#D9D9D9"/>
<path d="M34.5525 5.29937C34.3435 5.72803 33.9084 6 33.4315 6C32.51 6 31.9068 5.03501 32.3104 4.20663L34.0188 0.700925C34.2278 0.272088 34.663 0 35.1401 0C36.0618 0 36.6652 0.965326 36.2613 1.79388L34.5525 5.29937Z" fill="#D9D9D9"/>
<path d="M39.5525 5.29937C39.3435 5.72803 38.9084 6 38.4315 6C37.51 6 36.9068 5.03501 37.3104 4.20663L39.0188 0.700925C39.2278 0.272088 39.663 0 40.1401 0C41.0618 0 41.6652 0.965326 41.2613 1.79388L39.5525 5.29937Z" fill="#D9D9D9"/>
<path d="M44.5525 5.29937C44.3435 5.72803 43.9084 6 43.4315 6C42.51 6 41.9068 5.03501 42.3104 4.20663L44.0188 0.700925C44.2278 0.272088 44.663 0 45.1401 0C46.0618 0 46.6652 0.965326 46.2613 1.79388L44.5525 5.29937Z" fill="#D9D9D9"/>
<path d="M49.5525 5.29937C49.3435 5.72803 48.9084 6 48.4315 6C47.51 6 46.9068 5.03501 47.3104 4.20663L49.0188 0.700925C49.2278 0.272088 49.663 0 50.1401 0C51.0618 0 51.6652 0.965326 51.2613 1.79388L49.5525 5.29937Z" fill="#D9D9D9"/>
<path d="M54.5525 5.29937C54.3435 5.72803 53.9084 6 53.4315 6C52.51 6 51.9068 5.03501 52.3104 4.20663L54.0188 0.700925C54.2278 0.272088 54.663 0 55.1401 0C56.0618 0 56.6652 0.965326 56.2613 1.79388L54.5525 5.29937Z" fill="#D9D9D9"/>
<path d="M59.5525 5.29937C59.3435 5.72803 58.9084 6 58.4315 6C57.51 6 56.9068 5.03501 57.3104 4.20663L59.0188 0.700925C59.2278 0.272088 59.663 0 60.1401 0C61.0618 0 61.6652 0.965326 61.2613 1.79388L59.5525 5.29937Z" fill="#D9D9D9"/>
<path d="M64.5525 5.29937C64.3435 5.72803 63.9084 6 63.4315 6C62.51 6 61.9068 5.03501 62.3104 4.20663L64.0188 0.700925C64.2278 0.272088 64.663 0 65.1401 0C66.0618 0 66.6652 0.965326 66.2613 1.79388L64.5525 5.29937Z" fill="#D9D9D9"/>
<path d="M69.5525 5.29937C69.3435 5.72803 68.9084 6 68.4315 6C67.51 6 66.9068 5.03501 67.3104 4.20663L69.0188 0.700925C69.2278 0.272088 69.663 0 70.1401 0C71.0618 0 71.6652 0.965326 71.2613 1.79388L69.5525 5.29937Z" fill="#D9D9D9"/>
<path d="M74.5525 5.29937C74.3435 5.72803 73.9084 6 73.4315 6C72.51 6 71.9068 5.03501 72.3104 4.20663L74.0188 0.700925C74.2278 0.272088 74.663 0 75.1401 0C76.0618 0 76.6652 0.965326 76.2613 1.79388L74.5525 5.29937Z" fill="#D9D9D9"/>
<path d="M79.5525 5.29937C79.3435 5.72803 78.9084 6 78.4315 6C77.51 6 76.9068 5.03501 77.3104 4.20663L79.0188 0.700925C79.2278 0.272088 79.663 0 80.1401 0C81.0618 0 81.6652 0.965326 81.2613 1.79388L79.5525 5.29937Z" fill="#D9D9D9"/>
<path d="M84.5525 5.29937C84.3435 5.72803 83.9084 6 83.4315 6C82.51 6 81.9068 5.03501 82.3104 4.20663L84.0188 0.700925C84.2278 0.272088 84.663 0 85.1401 0C86.0618 0 86.6652 0.965326 86.2613 1.79388L84.5525 5.29937Z" fill="#D9D9D9"/>
<path d="M89.5525 5.29937C89.3435 5.72803 88.9084 6 88.4315 6C87.51 6 86.9068 5.03501 87.3104 4.20663L89.0188 0.700925C89.2278 0.272088 89.663 0 90.1401 0C91.0618 0 91.6652 0.965326 91.2613 1.79388L89.5525 5.29937Z" fill="#D9D9D9"/>
<path d="M94.5525 5.29937C94.3435 5.72803 93.9084 6 93.4315 6C92.51 6 91.9068 5.03501 92.3104 4.20663L94.0188 0.700925C94.2278 0.272088 94.663 0 95.1401 0C96.0618 0 96.6652 0.965326 96.2613 1.79388L94.5525 5.29937Z" fill="#D9D9D9"/>
<path d="M99.5525 5.29937C99.3435 5.72803 98.9084 6 98.4315 6C97.51 6 96.9068 5.03501 97.3104 4.20663L99.0188 0.700925C99.2278 0.272088 99.663 0 100.14 0C101.062 0 101.665 0.965326 101.261 1.79388L99.5525 5.29937Z" fill="#D9D9D9"/>
<path d="M104.552 5.29937C104.344 5.72803 103.908 6 103.431 6C102.51 6 101.907 5.03501 102.31 4.20663L104.019 0.700925C104.228 0.272088 104.663 0 105.14 0C106.062 0 106.665 0.965326 106.261 1.79388L104.552 5.29937Z" fill="#D9D9D9"/>
<path d="M109.552 5.29937C109.344 5.72803 108.908 6 108.431 6C107.51 6 106.907 5.03501 107.31 4.20663L109.019 0.700925C109.228 0.272088 109.663 0 110.14 0C111.062 0 111.665 0.965326 111.261 1.79388L109.552 5.29937Z" fill="#D9D9D9"/>
<path d="M114.552 5.29937C114.344 5.72803 113.908 6 113.431 6C112.51 6 111.907 5.03501 112.31 4.20663L114.019 0.700925C114.228 0.272088 114.663 0 115.14 0C116.062 0 116.665 0.965326 116.261 1.79388L114.552 5.29937Z" fill="#D9D9D9"/>
<path d="M119.552 5.29937C119.344 5.72803 118.908 6 118.431 6C117.51 6 116.907 5.03501 117.31 4.20663L119.019 0.700925C119.228 0.272088 119.663 0 120.14 0C121.062 0 121.665 0.965326 121.261 1.79388L119.552 5.29937Z" fill="#D9D9D9"/>
<path d="M124.552 5.29937C124.344 5.72803 123.908 6 123.431 6C122.51 6 121.907 5.03501 122.31 4.20663L124.019 0.700925C124.228 0.272088 124.663 0 125.14 0C126.062 0 126.665 0.965326 126.261 1.79388L124.552 5.29937Z" fill="#D9D9D9"/>
<path d="M129.552 5.29937C129.344 5.72803 128.908 6 128.431 6C127.51 6 126.907 5.03501 127.31 4.20663L129.019 0.700925C129.228 0.272088 129.663 0 130.14 0C131.062 0 131.665 0.965326 131.261 1.79388L129.552 5.29937Z" fill="#D9D9D9"/>
<path d="M134.552 5.29937C134.344 5.72803 133.908 6 133.431 6C132.51 6 131.907 5.03501 132.31 4.20663L134.019 0.700925C134.228 0.272088 134.663 0 135.14 0C136.062 0 136.665 0.965326 136.261 1.79388L134.552 5.29937Z" fill="#D9D9D9"/>
<path d="M139.552 5.29937C139.344 5.72803 138.908 6 138.431 6C137.51 6 136.907 5.03501 137.31 4.20663L139.019 0.700925C139.228 0.272088 139.663 0 140.14 0C141.062 0 141.665 0.965326 141.261 1.79388L139.552 5.29937Z" fill="#D9D9D9"/>
<path d="M144.552 5.29937C144.344 5.72803 143.908 6 143.431 6C142.51 6 141.907 5.03501 142.31 4.20663L144.019 0.700925C144.228 0.272088 144.663 0 145.14 0C146.062 0 146.665 0.965326 146.261 1.79388L144.552 5.29937Z" fill="#D9D9D9"/>
<path d="M149.552 5.29937C149.344 5.72803 148.908 6 148.431 6C147.51 6 146.907 5.03501 147.31 4.20663L149.019 0.700925C149.228 0.272088 149.663 0 150.14 0C151.062 0 151.665 0.965326 151.261 1.79388L149.552 5.29937Z" fill="#D9D9D9"/>
<path d="M154.552 5.29937C154.344 5.72803 153.908 6 153.431 6C152.51 6 151.907 5.03501 152.31 4.20663L154.019 0.700925C154.228 0.272088 154.663 0 155.14 0C156.062 0 156.665 0.965326 156.261 1.79388L154.552 5.29937Z" fill="#D9D9D9"/>
<path d="M159.552 5.29937C159.344 5.72803 158.908 6 158.431 6C157.51 6 156.907 5.03501 157.31 4.20663L159.019 0.700925C159.228 0.272088 159.663 0 160.14 0C161.062 0 161.665 0.965326 161.261 1.79388L159.552 5.29937Z" fill="#D9D9D9"/>
<path d="M164.552 5.29937C164.344 5.72803 163.908 6 163.431 6C162.51 6 161.907 5.03501 162.31 4.20663L164.019 0.700925C164.228 0.272088 164.663 0 165.14 0C166.062 0 166.665 0.965326 166.261 1.79388L164.552 5.29937Z" fill="#D9D9D9"/>
<path d="M169.552 5.29937C169.344 5.72803 168.908 6 168.431 6C167.51 6 166.907 5.03501 167.31 4.20663L169.019 0.700925C169.228 0.272088 169.663 0 170.14 0C171.062 0 171.665 0.965326 171.261 1.79388L169.552 5.29937Z" fill="#D9D9D9"/>
<path d="M174.552 5.29937C174.344 5.72803 173.908 6 173.431 6C172.51 6 171.907 5.03501 172.31 4.20663L174.019 0.700925C174.228 0.272088 174.663 0 175.14 0C176.062 0 176.665 0.965326 176.261 1.79388L174.552 5.29937Z" fill="#D9D9D9"/>
<path d="M179.552 5.29937C179.344 5.72803 178.908 6 178.431 6C177.51 6 176.907 5.03501 177.31 4.20663L179.019 0.700925C179.228 0.272088 179.663 0 180.14 0C181.062 0 181.665 0.965326 181.261 1.79388L179.552 5.29937Z" fill="#D9D9D9"/>
<path d="M184.552 5.29937C184.344 5.72803 183.908 6 183.431 6C182.51 6 181.907 5.03501 182.31 4.20663L184.019 0.700925C184.228 0.272088 184.663 0 185.14 0C186.062 0 186.665 0.965326 186.261 1.79388L184.552 5.29937Z" fill="#D9D9D9"/>
<path d="M189.552 5.29937C189.344 5.72803 188.908 6 188.431 6C187.51 6 186.907 5.03501 187.31 4.20663L189.019 0.700925C189.228 0.272088 189.663 0 190.14 0C191.062 0 191.665 0.965326 191.261 1.79388L189.552 5.29937Z" fill="#D9D9D9"/>
<path d="M194.552 5.29937C194.344 5.72803 193.908 6 193.431 6C192.51 6 191.907 5.03501 192.31 4.20663L194.019 0.700925C194.228 0.272088 194.663 0 195.14 0C196.062 0 196.665 0.965326 196.261 1.79388L194.552 5.29937Z" fill="#D9D9D9"/>
<path d="M199.552 5.29937C199.344 5.72803 198.908 6 198.431 6C197.51 6 196.907 5.03501 197.31 4.20663L199.019 0.700925C199.228 0.272088 199.663 0 200.14 0C201.062 0 201.665 0.965326 201.261 1.79388L199.552 5.29937Z" fill="#D9D9D9"/>
<path d="M204.552 5.29937C204.344 5.72803 203.908 6 203.431 6C202.51 6 201.907 5.03501 202.31 4.20663L204.019 0.700925C204.228 0.272088 204.663 0 205.14 0C206.062 0 206.665 0.965326 206.261 1.79388L204.552 5.29937Z" fill="#D9D9D9"/>
<path d="M209.552 5.29937C209.344 5.72803 208.908 6 208.431 6C207.51 6 206.907 5.03501 207.31 4.20663L209.019 0.700925C209.228 0.272088 209.663 0 210.14 0C211.062 0 211.665 0.965326 211.261 1.79388L209.552 5.29937Z" fill="#D9D9D9"/>
<path d="M214.552 5.29937C214.344 5.72803 213.908 6 213.431 6C212.51 6 211.907 5.03501 212.31 4.20663L214.019 0.700925C214.228 0.272088 214.663 0 215.14 0C216.062 0 216.665 0.965326 216.261 1.79388L214.552 5.29937Z" fill="#D9D9D9"/>
<path d="M219.552 5.29937C219.344 5.72803 218.908 6 218.431 6C217.51 6 216.907 5.03501 217.31 4.20663L219.019 0.700925C219.228 0.272088 219.663 0 220.14 0C221.062 0 221.665 0.965326 221.261 1.79388L219.552 5.29937Z" fill="#D9D9D9"/>
<path d="M224.552 5.29937C224.344 5.72803 223.908 6 223.431 6C222.51 6 221.907 5.03501 222.31 4.20663L224.019 0.700925C224.228 0.272088 224.663 0 225.14 0C226.062 0 226.665 0.965326 226.261 1.79388L224.552 5.29937Z" fill="#D9D9D9"/>
<path d="M229.552 5.29937C229.344 5.72803 228.908 6 228.431 6C227.51 6 226.907 5.03501 227.31 4.20663L229.019 0.700925C229.228 0.272088 229.663 0 230.14 0C231.062 0 231.665 0.965326 231.261 1.79388L229.552 5.29937Z" fill="#D9D9D9"/>
<path d="M234.552 5.29937C234.344 5.72803 233.908 6 233.431 6C232.51 6 231.907 5.03501 232.31 4.20663L234.019 0.700925C234.228 0.272088 234.663 0 235.14 0C236.062 0 236.665 0.965326 236.261 1.79388L234.552 5.29937Z" fill="#D9D9D9"/>
<path d="M239.552 5.29937C239.344 5.72803 238.908 6 238.431 6C237.51 6 236.907 5.03501 237.31 4.20663L239.019 0.700925C239.228 0.272088 239.663 0 240.14 0C241.062 0 241.665 0.965326 241.261 1.79388L239.552 5.29937Z" fill="#D9D9D9"/>
<path d="M244.552 5.29937C244.344 5.72803 243.908 6 243.431 6C242.51 6 241.907 5.03501 242.31 4.20663L244.019 0.700925C244.228 0.272088 244.663 0 245.14 0C246.062 0 246.665 0.965326 246.261 1.79388L244.552 5.29937Z" fill="#D9D9D9"/>
<path d="M249.552 5.29937C249.344 5.72803 248.908 6 248.431 6C247.51 6 246.907 5.03501 247.31 4.20663L249.019 0.700925C249.228 0.272088 249.663 0 250.14 0C251.062 0 251.665 0.965326 251.261 1.79388L249.552 5.29937Z" fill="#D9D9D9"/>
<path d="M254.552 5.29937C254.344 5.72803 253.908 6 253.431 6C252.51 6 251.907 5.03501 252.31 4.20663L254.019 0.700925C254.228 0.272088 254.663 0 255.14 0C256.062 0 256.665 0.965326 256.261 1.79388L254.552 5.29937Z" fill="#D9D9D9"/>
<path d="M259.552 5.29937C259.344 5.72803 258.908 6 258.431 6C257.51 6 256.907 5.03501 257.31 4.20663L259.019 0.700925C259.228 0.272088 259.663 0 260.14 0C261.062 0 261.665 0.965326 261.261 1.79388L259.552 5.29937Z" fill="#D9D9D9"/>
<path d="M264.552 5.29937C264.344 5.72803 263.908 6 263.431 6C262.51 6 261.907 5.03501 262.31 4.20663L264.019 0.700925C264.228 0.272088 264.663 0 265.14 0C266.062 0 266.665 0.965326 266.261 1.79388L264.552 5.29937Z" fill="#D9D9D9"/>
<path d="M269.552 5.29937C269.344 5.72803 268.908 6 268.431 6C267.51 6 266.907 5.03501 267.31 4.20663L269.019 0.700925C269.228 0.272088 269.663 0 270.14 0C271.062 0 271.665 0.965326 271.261 1.79388L269.552 5.29937Z" fill="#D9D9D9"/>
<path d="M274.552 5.29937C274.344 5.72803 273.908 6 273.431 6C272.51 6 271.907 5.03501 272.31 4.20663L274.019 0.700925C274.228 0.272088 274.663 0 275.14 0C276.062 0 276.665 0.965326 276.261 1.79388L274.552 5.29937Z" fill="#D9D9D9"/>
<path d="M279.552 5.29937C279.344 5.72803 278.908 6 278.431 6C277.51 6 276.907 5.03501 277.31 4.20663L279.019 0.700925C279.228 0.272088 279.663 0 280.14 0C281.062 0 281.665 0.965326 281.261 1.79388L279.552 5.29937Z" fill="#D9D9D9"/>
<path d="M284.552 5.29937C284.344 5.72803 283.908 6 283.431 6C282.51 6 281.907 5.03501 282.31 4.20663L284.019 0.700925C284.228 0.272088 284.663 0 285.14 0C286.062 0 286.665 0.965326 286.261 1.79388L284.552 5.29937Z" fill="#D9D9D9"/>
<path d="M289.552 5.29937C289.344 5.72803 288.908 6 288.431 6C287.51 6 286.907 5.03501 287.31 4.20663L289.019 0.700925C289.228 0.272088 289.663 0 290.14 0C291.062 0 291.665 0.965326 291.261 1.79388L289.552 5.29937Z" fill="#D9D9D9"/>
<path d="M294.552 5.29937C294.344 5.72803 293.908 6 293.431 6C292.51 6 291.907 5.03501 292.31 4.20663L294.019 0.700925C294.228 0.272088 294.663 0 295.14 0C296.062 0 296.665 0.965326 296.261 1.79388L294.552 5.29937Z" fill="#D9D9D9"/>
<path d="M299.552 5.29937C299.344 5.72803 298.908 6 298.431 6C297.51 6 296.907 5.03501 297.31 4.20663L299.019 0.700925C299.228 0.272088 299.663 0 300.14 0C301.062 0 301.665 0.965326 301.261 1.79388L299.552 5.29937Z" fill="#D9D9D9"/>
<path d="M304.552 5.29937C304.344 5.72803 303.908 6 303.431 6C302.51 6 301.907 5.03501 302.31 4.20663L304.019 0.700925C304.228 0.272088 304.663 0 305.14 0C306.062 0 306.665 0.965326 306.261 1.79388L304.552 5.29937Z" fill="#D9D9D9"/>
<path d="M309.552 5.29937C309.344 5.72803 308.908 6 308.431 6C307.51 6 306.907 5.03501 307.31 4.20663L309.019 0.700925C309.228 0.272088 309.663 0 310.14 0C311.062 0 311.665 0.965326 311.261 1.79388L309.552 5.29937Z" fill="#D9D9D9"/>
<path d="M314.552 5.29937C314.344 5.72803 313.908 6 313.431 6C312.51 6 311.907 5.03501 312.31 4.20663L314.019 0.700925C314.228 0.272088 314.663 0 315.14 0C316.062 0 316.665 0.965326 316.261 1.79388L314.552 5.29937Z" fill="#D9D9D9"/>
<path d="M319.552 5.29937C319.344 5.72803 318.908 6 318.431 6C317.51 6 316.907 5.03501 317.31 4.20663L319.019 0.700925C319.228 0.272088 319.663 0 320.14 0C321.062 0 321.665 0.965326 321.261 1.79388L319.552 5.29937Z" fill="#D9D9D9"/>
<path d="M324.552 5.29937C324.344 5.72803 323.908 6 323.431 6C322.51 6 321.907 5.03501 322.31 4.20663L324.019 0.700925C324.228 0.272088 324.663 0 325.14 0C326.062 0 326.665 0.965326 326.261 1.79388L324.552 5.29937Z" fill="#D9D9D9"/>
<path d="M329.552 5.29937C329.344 5.72803 328.908 6 328.431 6C327.51 6 326.907 5.03501 327.31 4.20663L329.019 0.700925C329.228 0.272088 329.663 0 330.14 0C331.062 0 331.665 0.965326 331.261 1.79388L329.552 5.29937Z" fill="#D9D9D9"/>
<path d="M334.552 5.29937C334.344 5.72803 333.908 6 333.431 6C332.51 6 331.907 5.03501 332.31 4.20663L334.019 0.700925C334.228 0.272088 334.663 0 335.14 0C336.062 0 336.665 0.965326 336.261 1.79388L334.552 5.29937Z" fill="#D9D9D9"/>
<path d="M339.552 5.29937C339.344 5.72803 338.908 6 338.431 6C337.51 6 336.907 5.03501 337.31 4.20663L339.019 0.700925C339.228 0.272088 339.663 0 340.14 0C341.062 0 341.665 0.965326 341.261 1.79388L339.552 5.29937Z" fill="#D9D9D9"/>
<path d="M344.552 5.29937C344.344 5.72803 343.908 6 343.431 6C342.51 6 341.907 5.03501 342.31 4.20663L344.019 0.700925C344.228 0.272088 344.663 0 345.14 0C346.062 0 346.665 0.965326 346.261 1.79388L344.552 5.29937Z" fill="#D9D9D9"/>
<path d="M349.552 5.29937C349.344 5.72803 348.908 6 348.431 6C347.51 6 346.907 5.03501 347.31 4.20663L349.019 0.700925C349.228 0.272088 349.663 0 350.14 0C351.062 0 351.665 0.965326 351.261 1.79388L349.552 5.29937Z" fill="#D9D9D9"/>
<path d="M354.552 5.29937C354.344 5.72803 353.908 6 353.431 6C352.51 6 351.907 5.03501 352.31 4.20663L354.019 0.700925C354.228 0.272088 354.663 0 355.14 0C356.062 0 356.665 0.965326 356.261 1.79388L354.552 5.29937Z" fill="#D9D9D9"/>
<path d="M359.552 5.29937C359.344 5.72803 358.908 6 358.431 6C357.51 6 356.907 5.03501 357.31 4.20663L359.019 0.700925C359.228 0.272088 359.663 0 360.14 0C361.062 0 361.665 0.965326 361.261 1.79388L359.552 5.29937Z" fill="#D9D9D9"/>
<path d="M364.552 5.29937C364.344 5.72803 363.908 6 363.431 6C362.51 6 361.907 5.03501 362.31 4.20663L364.019 0.700925C364.228 0.272088 364.663 0 365.14 0C366.062 0 366.665 0.965326 366.261 1.79388L364.552 5.29937Z" fill="#D9D9D9"/>
<path d="M369.552 5.29937C369.344 5.72803 368.908 6 368.431 6C367.51 6 366.907 5.03501 367.31 4.20663L369.019 0.700925C369.228 0.272088 369.663 0 370.14 0C371.062 0 371.665 0.965326 371.261 1.79388L369.552 5.29937Z" fill="#D9D9D9"/>
<path d="M374.552 5.29937C374.344 5.72803 373.908 6 373.431 6C372.51 6 371.907 5.03501 372.31 4.20663L374.019 0.700925C374.228 0.272088 374.663 0 375.14 0C376.062 0 376.665 0.965326 376.261 1.79388L374.552 5.29937Z" fill="#D9D9D9"/>
<path d="M379.552 5.29937C379.344 5.72803 378.908 6 378.431 6C377.51 6 376.907 5.03501 377.31 4.20663L379.019 0.700925C379.228 0.272088 379.663 0 380.14 0C381.062 0 381.665 0.965326 381.261 1.79388L379.552 5.29937Z" fill="#D9D9D9"/>
<path d="M384.552 5.29937C384.344 5.72803 383.908 6 383.431 6C382.51 6 381.907 5.03501 382.31 4.20663L384.019 0.700925C384.228 0.272088 384.663 0 385.14 0C386.062 0 386.665 0.965326 386.261 1.79388L384.552 5.29937Z" fill="#D9D9D9"/>
<path d="M389.552 5.29937C389.344 5.72803 388.908 6 388.431 6C387.51 6 386.907 5.03501 387.31 4.20663L389.019 0.700925C389.228 0.272088 389.663 0 390.14 0C391.062 0 391.665 0.965326 391.261 1.79388L389.552 5.29937Z" fill="#D9D9D9"/>
<path d="M394.552 5.29937C394.344 5.72803 393.908 6 393.431 6C392.51 6 391.907 5.03501 392.31 4.20663L394.019 0.700925C394.228 0.272088 394.663 0 395.14 0C396.062 0 396.665 0.965326 396.261 1.79388L394.552 5.29937Z" fill="#D9D9D9"/>
<path d="M399.552 5.29937C399.344 5.72803 398.908 6 398.431 6C397.51 6 396.907 5.03501 397.31 4.20663L399.019 0.700925C399.228 0.272088 399.663 0 400.14 0C401.062 0 401.665 0.965326 401.261 1.79388L399.552 5.29937Z" fill="#D9D9D9"/>
<path d="M404.552 5.29937C404.344 5.72803 403.908 6 403.431 6C402.51 6 401.907 5.03501 402.31 4.20663L404.019 0.700925C404.228 0.272088 404.663 0 405.14 0C406.062 0 406.665 0.965326 406.261 1.79388L404.552 5.29937Z" fill="#D9D9D9"/>
<path d="M409.552 5.29937C409.344 5.72803 408.908 6 408.431 6C407.51 6 406.907 5.03501 407.31 4.20663L409.019 0.700925C409.228 0.272088 409.663 0 410.14 0C411.062 0 411.665 0.965326 411.261 1.79388L409.552 5.29937Z" fill="#D9D9D9"/>
<path d="M414.552 5.29937C414.344 5.72803 413.908 6 413.431 6C412.51 6 411.907 5.03501 412.31 4.20663L414.019 0.700925C414.228 0.272088 414.663 0 415.14 0C416.062 0 416.665 0.965326 416.261 1.79388L414.552 5.29937Z" fill="#D9D9D9"/>
<path d="M419.552 5.29937C419.344 5.72803 418.908 6 418.431 6C417.51 6 416.907 5.03501 417.31 4.20663L419.019 0.700925C419.228 0.272088 419.663 0 420.14 0C421.062 0 421.665 0.965326 421.261 1.79388L419.552 5.29937Z" fill="#D9D9D9"/>
<path d="M424.552 5.29937C424.344 5.72803 423.908 6 423.431 6C422.51 6 421.907 5.03501 422.31 4.20663L424.019 0.700925C424.228 0.272088 424.663 0 425.14 0C426.062 0 426.665 0.965326 426.261 1.79388L424.552 5.29937Z" fill="#D9D9D9"/>
<path d="M429.552 5.29937C429.344 5.72803 428.908 6 428.431 6C427.51 6 426.907 5.03501 427.31 4.20663L429.019 0.700925C429.228 0.272088 429.663 0 430.14 0C431.062 0 431.665 0.965326 431.261 1.79388L429.552 5.29937Z" fill="#D9D9D9"/>
<path d="M434.552 5.29937C434.344 5.72803 433.908 6 433.431 6C432.51 6 431.907 5.03501 432.31 4.20663L434.019 0.700925C434.228 0.272088 434.663 0 435.14 0C436.062 0 436.665 0.965326 436.261 1.79388L434.552 5.29937Z" fill="#D9D9D9"/>
<path d="M439.552 5.29937C439.344 5.72803 438.908 6 438.431 6C437.51 6 436.907 5.03501 437.31 4.20663L439.019 0.700925C439.228 0.272088 439.663 0 440.14 0C441.062 0 441.665 0.965326 441.261 1.79388L439.552 5.29937Z" fill="#D9D9D9"/>
<path d="M444.552 5.29937C444.344 5.72803 443.908 6 443.431 6C442.51 6 441.907 5.03501 442.31 4.20663L444.019 0.700925C444.228 0.272088 444.663 0 445.14 0C446.062 0 446.665 0.965326 446.261 1.79388L444.552 5.29937Z" fill="#D9D9D9"/>
<path d="M449.552 5.29937C449.344 5.72803 448.908 6 448.431 6C447.51 6 446.907 5.03501 447.31 4.20663L449.019 0.700925C449.228 0.272088 449.663 0 450.14 0C451.062 0 451.665 0.965326 451.261 1.79388L449.552 5.29937Z" fill="#D9D9D9"/>
<path d="M454.552 5.29937C454.344 5.72803 453.908 6 453.431 6C452.51 6 451.907 5.03501 452.31 4.20663L454.019 0.700925C454.228 0.272088 454.663 0 455.14 0C456.062 0 456.665 0.965326 456.261 1.79388L454.552 5.29937Z" fill="#D9D9D9"/>
<path d="M459.552 5.29937C459.344 5.72803 458.908 6 458.431 6C457.51 6 456.907 5.03501 457.31 4.20663L459.019 0.700925C459.228 0.272088 459.663 0 460.14 0C461.062 0 461.665 0.965326 461.261 1.79388L459.552 5.29937Z" fill="#D9D9D9"/>
<path d="M464.552 5.29937C464.344 5.72803 463.908 6 463.431 6C462.51 6 461.907 5.03501 462.31 4.20663L464.019 0.700925C464.228 0.272088 464.663 0 465.14 0C466.062 0 466.665 0.965326 466.261 1.79388L464.552 5.29937Z" fill="#D9D9D9"/>
<path d="M469.552 5.29937C469.344 5.72803 468.908 6 468.431 6C467.51 6 466.907 5.03501 467.31 4.20663L469.019 0.700925C469.228 0.272088 469.663 0 470.14 0C471.062 0 471.665 0.965326 471.261 1.79388L469.552 5.29937Z" fill="#D9D9D9"/>
<path d="M474.552 5.29937C474.344 5.72803 473.908 6 473.431 6C472.51 6 471.907 5.03501 472.31 4.20663L474.019 0.700925C474.228 0.272088 474.663 0 475.14 0C476.062 0 476.665 0.965326 476.261 1.79388L474.552 5.29937Z" fill="#D9D9D9"/>
<path d="M479.552 5.29937C479.344 5.72803 478.908 6 478.431 6C477.51 6 476.907 5.03501 477.31 4.20663L479.019 0.700925C479.228 0.272088 479.663 0 480.14 0C481.062 0 481.665 0.965326 481.261 1.79388L479.552 5.29937Z" fill="#D9D9D9"/>
<path d="M484.552 5.29937C484.344 5.72803 483.908 6 483.431 6C482.51 6 481.907 5.03501 482.31 4.20663L484.019 0.700925C484.228 0.272088 484.663 0 485.14 0C486.062 0 486.665 0.965326 486.261 1.79388L484.552 5.29937Z" fill="#D9D9D9"/>
<path d="M489.552 5.29937C489.344 5.72803 488.908 6 488.431 6C487.51 6 486.907 5.03501 487.31 4.20663L489.019 0.700925C489.228 0.272088 489.663 0 490.14 0C491.062 0 491.665 0.965326 491.261 1.79388L489.552 5.29937Z" fill="#D9D9D9"/>
<path d="M494.552 5.29937C494.344 5.72803 493.908 6 493.431 6C492.51 6 491.907 5.03501 492.31 4.20663L494.019 0.700925C494.228 0.272088 494.663 0 495.14 0C496.062 0 496.665 0.965326 496.261 1.79388L494.552 5.29937Z" fill="#D9D9D9"/>
<path d="M499.552 5.29937C499.344 5.72803 498.908 6 498.431 6C497.51 6 496.907 5.03501 497.31 4.20663L499.019 0.700925C499.228 0.272088 499.663 0 500.14 0C501.062 0 501.665 0.965326 501.261 1.79388L499.552 5.29937Z" fill="#D9D9D9"/>
<path d="M504.552 5.29937C504.344 5.72803 503.908 6 503.431 6C502.51 6 501.907 5.03501 502.31 4.20663L504.019 0.700925C504.228 0.272088 504.663 0 505.14 0C506.062 0 506.665 0.965326 506.261 1.79388L504.552 5.29937Z" fill="#D9D9D9"/>
<path d="M509.552 5.29937C509.344 5.72803 508.908 6 508.431 6C507.51 6 506.907 5.03501 507.31 4.20663L509.019 0.700925C509.228 0.272088 509.663 0 510.14 0C511.062 0 511.665 0.965326 511.261 1.79388L509.552 5.29937Z" fill="#D9D9D9"/>
<path d="M514.552 5.29937C514.344 5.72803 513.908 6 513.432 6C512.51 6 511.907 5.03501 512.31 4.20663L514.019 0.700925C514.228 0.272088 514.663 0 515.14 0C516.062 0 516.665 0.965326 516.261 1.79388L514.552 5.29937Z" fill="#D9D9D9"/>
<path d="M519.552 5.29937C519.344 5.72803 518.908 6 518.432 6C517.51 6 516.907 5.03501 517.31 4.20663L519.019 0.700925C519.228 0.272088 519.663 0 520.14 0C521.062 0 521.665 0.965326 521.261 1.79388L519.552 5.29937Z" fill="#D9D9D9"/>
<path d="M524.552 5.29937C524.344 5.72803 523.908 6 523.432 6C522.51 6 521.907 5.03501 522.31 4.20663L524.019 0.700925C524.228 0.272088 524.663 0 525.14 0C526.062 0 526.665 0.965326 526.261 1.79388L524.552 5.29937Z" fill="#D9D9D9"/>
<path d="M529.552 5.29937C529.344 5.72803 528.908 6 528.432 6C527.51 6 526.907 5.03501 527.31 4.20663L529.019 0.700925C529.228 0.272088 529.663 0 530.14 0C531.062 0 531.665 0.965326 531.261 1.79388L529.552 5.29937Z" fill="#D9D9D9"/>
<path d="M534.552 5.29937C534.344 5.72803 533.908 6 533.432 6C532.51 6 531.907 5.03501 532.31 4.20663L534.019 0.700925C534.228 0.272088 534.663 0 535.14 0C536.062 0 536.665 0.965326 536.261 1.79388L534.552 5.29937Z" fill="#D9D9D9"/>
<path d="M539.552 5.29937C539.344 5.72803 538.908 6 538.432 6C537.51 6 536.907 5.03501 537.31 4.20663L539.019 0.700925C539.228 0.272088 539.663 0 540.14 0C541.062 0 541.665 0.965326 541.261 1.79388L539.552 5.29937Z" fill="#D9D9D9"/>
<path d="M544.552 5.29937C544.344 5.72803 543.908 6 543.432 6C542.51 6 541.907 5.03501 542.31 4.20663L544.019 0.700925C544.228 0.272088 544.663 0 545.14 0C546.062 0 546.665 0.965326 546.261 1.79388L544.552 5.29937Z" fill="#D9D9D9"/>
<path d="M549.552 5.29937C549.344 5.72803 548.908 6 548.432 6C547.51 6 546.907 5.03501 547.31 4.20663L549.019 0.700925C549.228 0.272088 549.663 0 550.14 0C551.062 0 551.665 0.965326 551.261 1.79388L549.552 5.29937Z" fill="#D9D9D9"/>
<path d="M554.552 5.29937C554.344 5.72803 553.908 6 553.432 6C552.51 6 551.907 5.03501 552.31 4.20663L554.019 0.700925C554.228 0.272088 554.663 0 555.14 0C556.062 0 556.665 0.965326 556.261 1.79388L554.552 5.29937Z" fill="#D9D9D9"/>
<path d="M559.552 5.29937C559.344 5.72803 558.908 6 558.432 6C557.51 6 556.907 5.03501 557.31 4.20663L559.019 0.700925C559.228 0.272088 559.663 0 560.14 0C561.062 0 561.665 0.965326 561.261 1.79388L559.552 5.29937Z" fill="#D9D9D9"/>
<path d="M564.552 5.29937C564.344 5.72803 563.908 6 563.432 6C562.51 6 561.907 5.03501 562.31 4.20663L564.019 0.700925C564.228 0.272088 564.663 0 565.14 0C566.062 0 566.665 0.965326 566.261 1.79388L564.552 5.29937Z" fill="#D9D9D9"/>
<path d="M569.552 5.29937C569.344 5.72803 568.908 6 568.432 6C567.51 6 566.907 5.03501 567.31 4.20663L569.019 0.700925C569.228 0.272088 569.663 0 570.14 0C571.062 0 571.665 0.965326 571.261 1.79388L569.552 5.29937Z" fill="#D9D9D9"/>
<path d="M574.552 5.29937C574.344 5.72803 573.908 6 573.432 6C572.51 6 571.907 5.03501 572.31 4.20663L574.019 0.700925C574.228 0.272088 574.663 0 575.14 0C576.062 0 576.665 0.965326 576.261 1.79388L574.552 5.29937Z" fill="#D9D9D9"/>
<path d="M579.552 5.29937C579.344 5.72803 578.908 6 578.432 6C577.51 6 576.907 5.03501 577.31 4.20663L579.019 0.700925C579.228 0.272088 579.663 0 580.14 0C581.062 0 581.665 0.965326 581.261 1.79388L579.552 5.29937Z" fill="#D9D9D9"/>
<path d="M584.552 5.29937C584.344 5.72803 583.908 6 583.432 6C582.51 6 581.907 5.03501 582.31 4.20663L584.019 0.700925C584.228 0.272088 584.663 0 585.14 0C586.062 0 586.665 0.965326 586.261 1.79388L584.552 5.29937Z" fill="#D9D9D9"/>
<path d="M589.552 5.29937C589.344 5.72803 588.908 6 588.432 6C587.51 6 586.907 5.03501 587.31 4.20663L589.019 0.700925C589.228 0.272088 589.663 0 590.14 0C591.062 0 591.665 0.965326 591.261 1.79388L589.552 5.29937Z" fill="#D9D9D9"/>
<path d="M594.552 5.29937C594.344 5.72803 593.908 6 593.432 6C592.51 6 591.907 5.03501 592.31 4.20663L594.019 0.700925C594.228 0.272088 594.663 0 595.14 0C596.062 0 596.665 0.965326 596.261 1.79388L594.552 5.29937Z" fill="#D9D9D9"/>
<path d="M599.552 5.29937C599.344 5.72803 598.908 6 598.432 6C597.51 6 596.907 5.03501 597.31 4.20663L599.019 0.700925C599.228 0.272088 599.663 0 600.14 0C601.062 0 601.665 0.965326 601.261 1.79388L599.552 5.29937Z" fill="#D9D9D9"/>
<path d="M604.552 5.29937C604.344 5.72803 603.908 6 603.432 6C602.51 6 601.907 5.03501 602.31 4.20663L604.019 0.700925C604.228 0.272088 604.663 0 605.14 0C606.062 0 606.665 0.965326 606.261 1.79388L604.552 5.29937Z" fill="#D9D9D9"/>
<path d="M609.552 5.29937C609.344 5.72803 608.908 6 608.432 6C607.51 6 606.907 5.03501 607.31 4.20663L609.019 0.700925C609.228 0.272088 609.663 0 610.14 0C611.062 0 611.665 0.965326 611.261 1.79388L609.552 5.29937Z" fill="#D9D9D9"/>
<path d="M614.552 5.29937C614.344 5.72803 613.908 6 613.432 6C612.51 6 611.907 5.03501 612.31 4.20663L614.019 0.700925C614.228 0.272088 614.663 0 615.14 0C616.062 0 616.665 0.965326 616.261 1.79388L614.552 5.29937Z" fill="#D9D9D9"/>
<path d="M619.552 5.29937C619.344 5.72803 618.908 6 618.432 6C617.51 6 616.907 5.03501 617.31 4.20663L619.019 0.700925C619.228 0.272088 619.663 0 620.14 0C621.062 0 621.665 0.965326 621.261 1.79388L619.552 5.29937Z" fill="#D9D9D9"/>
<path d="M624.552 5.29937C624.344 5.72803 623.908 6 623.432 6C622.51 6 621.907 5.03501 622.31 4.20663L624.019 0.700925C624.228 0.272088 624.663 0 625.14 0C626.062 0 626.665 0.965326 626.261 1.79388L624.552 5.29937Z" fill="#D9D9D9"/>
<path d="M629.552 5.29937C629.344 5.72803 628.908 6 628.432 6C627.51 6 626.907 5.03501 627.31 4.20663L629.019 0.700925C629.228 0.272088 629.663 0 630.14 0C631.062 0 631.665 0.965326 631.261 1.79388L629.552 5.29937Z" fill="#D9D9D9"/>
<path d="M636 1.89248C636 2.17979 635.935 2.46332 635.809 2.72159L634.552 5.29929C634.344 5.728 633.908 6 633.431 6C632.51 6 631.907 5.03503 632.31 4.20668L634.084 0.566967C634.253 0.220088 634.605 0 634.991 0C635.548 0 636 0.451721 636 1.00895V1.89248Z" fill="#D9D9D9"/>
<path d="M1.55979 1.18139C1.17799 1.96456 0 1.6927 0 0.821432C0 0.367768 0.367767 0 0.821432 0C1.42847 0 1.82581 0.635744 1.55979 1.18139Z" fill="#D9D9D9"/>
</svg>
