<svg width="891" height="111" viewBox="0 0 891 111" fill="none" xmlns="http://www.w3.org/2000/svg">
<path d="M63.5 0L65.232 1L1.73205 110.985L0 109.985L63.5 0Z" fill="#D9D9D9"/>
<path d="M68.5 0L70.232 1L6.73205 110.985L5 109.985L68.5 0Z" fill="#D9D9D9"/>
<path d="M73.5 0L75.232 1L11.7321 110.985L10 109.985L73.5 0Z" fill="#D9D9D9"/>
<path d="M78.5 0L80.232 1L16.732 110.985L15 109.985L78.5 0Z" fill="#D9D9D9"/>
<path d="M83.5 0L85.232 1L21.732 110.985L20 109.985L83.5 0Z" fill="#D9D9D9"/>
<path d="M88.5 0L90.232 1L26.732 110.985L25 109.985L88.5 0Z" fill="#D9D9D9"/>
<path d="M93.5 0L95.232 1L31.732 110.985L30 109.985L93.5 0Z" fill="#D9D9D9"/>
<path d="M98.5 0L100.232 1L36.7321 110.985L35 109.985L98.5 0Z" fill="#D9D9D9"/>
<path d="M103.5 0L105.232 1L41.7321 110.985L40 109.985L103.5 0Z" fill="#D9D9D9"/>
<path d="M108.5 0L110.232 1L46.7321 110.985L45 109.985L108.5 0Z" fill="#D9D9D9"/>
<path d="M113.5 0L115.232 1L51.7321 110.985L50 109.985L113.5 0Z" fill="#D9D9D9"/>
<path d="M118.5 0L120.232 1L56.7321 110.985L55 109.985L118.5 0Z" fill="#D9D9D9"/>
<path d="M123.5 0L125.232 1L61.7321 110.985L60 109.985L123.5 0Z" fill="#D9D9D9"/>
<path d="M128.5 0L130.232 1L66.732 110.985L65 109.985L128.5 0Z" fill="#D9D9D9"/>
<path d="M133.5 0L135.232 1L71.732 110.985L70 109.985L133.5 0Z" fill="#D9D9D9"/>
<path d="M138.5 0L140.232 1L76.732 110.985L75 109.985L138.5 0Z" fill="#D9D9D9"/>
<path d="M143.5 0L145.232 1L81.732 110.985L80 109.985L143.5 0Z" fill="#D9D9D9"/>
<path d="M148.5 0L150.232 1L86.732 110.985L85 109.985L148.5 0Z" fill="#D9D9D9"/>
<path d="M153.5 0L155.232 1L91.732 110.985L90 109.985L153.5 0Z" fill="#D9D9D9"/>
<path d="M158.5 0L160.232 1L96.732 110.985L95 109.985L158.5 0Z" fill="#D9D9D9"/>
<path d="M163.5 0L165.232 1L101.732 110.985L100 109.985L163.5 0Z" fill="#D9D9D9"/>
<path d="M168.5 0L170.232 1L106.732 110.985L105 109.985L168.5 0Z" fill="#D9D9D9"/>
<path d="M173.5 0L175.232 1L111.732 110.985L110 109.985L173.5 0Z" fill="#D9D9D9"/>
<path d="M178.5 0L180.232 1L116.732 110.985L115 109.985L178.5 0Z" fill="#D9D9D9"/>
<path d="M183.5 0L185.232 1L121.732 110.985L120 109.985L183.5 0Z" fill="#D9D9D9"/>
<path d="M188.5 0L190.232 1L126.732 110.985L125 109.985L188.5 0Z" fill="#D9D9D9"/>
<path d="M193.5 0L195.232 1L131.732 110.985L130 109.985L193.5 0Z" fill="#D9D9D9"/>
<path d="M198.5 0L200.232 1L136.732 110.985L135 109.985L198.5 0Z" fill="#D9D9D9"/>
<path d="M203.5 0L205.232 1L141.732 110.985L140 109.985L203.5 0Z" fill="#D9D9D9"/>
<path d="M208.5 0L210.232 1L146.732 110.985L145 109.985L208.5 0Z" fill="#D9D9D9"/>
<path d="M213.5 0L215.232 1L151.732 110.985L150 109.985L213.5 0Z" fill="#D9D9D9"/>
<path d="M218.5 0L220.232 1L156.732 110.985L155 109.985L218.5 0Z" fill="#D9D9D9"/>
<path d="M223.5 0L225.232 1L161.732 110.985L160 109.985L223.5 0Z" fill="#D9D9D9"/>
<path d="M228.5 0L230.232 1L166.732 110.985L165 109.985L228.5 0Z" fill="#D9D9D9"/>
<path d="M233.5 0L235.232 1L171.732 110.985L170 109.985L233.5 0Z" fill="#D9D9D9"/>
<path d="M238.5 0L240.232 1L176.732 110.985L175 109.985L238.5 0Z" fill="#D9D9D9"/>
<path d="M243.5 0L245.232 1L181.732 110.985L180 109.985L243.5 0Z" fill="#D9D9D9"/>
<path d="M248.5 0L250.232 1L186.732 110.985L185 109.985L248.5 0Z" fill="#D9D9D9"/>
<path d="M253.5 0L255.232 1L191.732 110.985L190 109.985L253.5 0Z" fill="#D9D9D9"/>
<path d="M258.5 0L260.232 1L196.732 110.985L195 109.985L258.5 0Z" fill="#D9D9D9"/>
<path d="M263.5 0L265.232 1L201.732 110.985L200 109.985L263.5 0Z" fill="#D9D9D9"/>
<path d="M268.5 0L270.232 1L206.732 110.985L205 109.985L268.5 0Z" fill="#D9D9D9"/>
<path d="M273.5 0L275.232 1L211.732 110.985L210 109.985L273.5 0Z" fill="#D9D9D9"/>
<path d="M278.5 0L280.232 1L216.732 110.985L215 109.985L278.5 0Z" fill="#D9D9D9"/>
<path d="M283.5 0L285.232 1L221.732 110.985L220 109.985L283.5 0Z" fill="#D9D9D9"/>
<path d="M288.5 0L290.232 1L226.732 110.985L225 109.985L288.5 0Z" fill="#D9D9D9"/>
<path d="M293.5 0L295.232 1L231.732 110.985L230 109.985L293.5 0Z" fill="#D9D9D9"/>
<path d="M298.5 0L300.232 1L236.732 110.985L235 109.985L298.5 0Z" fill="#D9D9D9"/>
<path d="M303.5 0L305.232 1L241.732 110.985L240 109.985L303.5 0Z" fill="#D9D9D9"/>
<path d="M308.5 0L310.232 1L246.732 110.985L245 109.985L308.5 0Z" fill="#D9D9D9"/>
<path d="M313.5 0L315.232 1L251.732 110.985L250 109.985L313.5 0Z" fill="#D9D9D9"/>
<path d="M318.5 0L320.232 1L256.732 110.985L255 109.985L318.5 0Z" fill="#D9D9D9"/>
<path d="M323.5 0L325.232 1L261.732 110.985L260 109.985L323.5 0Z" fill="#D9D9D9"/>
<path d="M328.5 0L330.232 1L266.732 110.985L265 109.985L328.5 0Z" fill="#D9D9D9"/>
<path d="M333.5 0L335.232 1L271.732 110.985L270 109.985L333.5 0Z" fill="#D9D9D9"/>
<path d="M338.5 0L340.232 1L276.732 110.985L275 109.985L338.5 0Z" fill="#D9D9D9"/>
<path d="M343.5 0L345.232 1L281.732 110.985L280 109.985L343.5 0Z" fill="#D9D9D9"/>
<path d="M348.5 0L350.232 1L286.732 110.985L285 109.985L348.5 0Z" fill="#D9D9D9"/>
<path d="M353.5 0L355.232 1L291.732 110.985L290 109.985L353.5 0Z" fill="#D9D9D9"/>
<path d="M358.5 0L360.232 1L296.732 110.985L295 109.985L358.5 0Z" fill="#D9D9D9"/>
<path d="M363.5 0L365.232 1L301.732 110.985L300 109.985L363.5 0Z" fill="#D9D9D9"/>
<path d="M368.5 0L370.232 1L306.732 110.985L305 109.985L368.5 0Z" fill="#D9D9D9"/>
<path d="M373.5 0L375.232 1L311.732 110.985L310 109.985L373.5 0Z" fill="#D9D9D9"/>
<path d="M378.5 0L380.232 1L316.732 110.985L315 109.985L378.5 0Z" fill="#D9D9D9"/>
<path d="M383.5 0L385.232 1L321.732 110.985L320 109.985L383.5 0Z" fill="#D9D9D9"/>
<path d="M388.5 0L390.232 1L326.732 110.985L325 109.985L388.5 0Z" fill="#D9D9D9"/>
<path d="M393.5 0L395.232 1L331.732 110.985L330 109.985L393.5 0Z" fill="#D9D9D9"/>
<path d="M398.5 0L400.232 1L336.732 110.985L335 109.985L398.5 0Z" fill="#D9D9D9"/>
<path d="M403.5 0L405.232 1L341.732 110.985L340 109.985L403.5 0Z" fill="#D9D9D9"/>
<path d="M408.5 0L410.232 1L346.732 110.985L345 109.985L408.5 0Z" fill="#D9D9D9"/>
<path d="M413.5 0L415.232 1L351.732 110.985L350 109.985L413.5 0Z" fill="#D9D9D9"/>
<path d="M418.5 0L420.232 1L356.732 110.985L355 109.985L418.5 0Z" fill="#D9D9D9"/>
<path d="M423.5 0L425.232 1L361.732 110.985L360 109.985L423.5 0Z" fill="#D9D9D9"/>
<path d="M428.5 0L430.232 1L366.732 110.985L365 109.985L428.5 0Z" fill="#D9D9D9"/>
<path d="M433.5 0L435.232 1L371.732 110.985L370 109.985L433.5 0Z" fill="#D9D9D9"/>
<path d="M438.5 0L440.232 1L376.732 110.985L375 109.985L438.5 0Z" fill="#D9D9D9"/>
<path d="M443.5 0L445.232 1L381.732 110.985L380 109.985L443.5 0Z" fill="#D9D9D9"/>
<path d="M448.5 0L450.232 1L386.732 110.985L385 109.985L448.5 0Z" fill="#D9D9D9"/>
<path d="M453.5 0L455.232 1L391.732 110.985L390 109.985L453.5 0Z" fill="#D9D9D9"/>
<path d="M458.5 0L460.232 1L396.732 110.985L395 109.985L458.5 0Z" fill="#D9D9D9"/>
<path d="M463.5 0L465.232 1L401.732 110.985L400 109.985L463.5 0Z" fill="#D9D9D9"/>
<path d="M468.5 0L470.232 1L406.732 110.985L405 109.985L468.5 0Z" fill="#D9D9D9"/>
<path d="M473.5 0L475.232 1L411.732 110.985L410 109.985L473.5 0Z" fill="#D9D9D9"/>
<path d="M478.5 0L480.232 1L416.732 110.985L415 109.985L478.5 0Z" fill="#D9D9D9"/>
<path d="M483.5 0L485.232 1L421.732 110.985L420 109.985L483.5 0Z" fill="#D9D9D9"/>
<path d="M488.5 0L490.232 1L426.732 110.985L425 109.985L488.5 0Z" fill="#D9D9D9"/>
<path d="M493.5 0L495.232 1L431.732 110.985L430 109.985L493.5 0Z" fill="#D9D9D9"/>
<path d="M498.5 0L500.232 1L436.732 110.985L435 109.985L498.5 0Z" fill="#D9D9D9"/>
<path d="M503.5 0L505.232 1L441.732 110.985L440 109.985L503.5 0Z" fill="#D9D9D9"/>
<path d="M508.5 0L510.232 1L446.732 110.985L445 109.985L508.5 0Z" fill="#D9D9D9"/>
<path d="M513.5 0L515.232 1L451.732 110.985L450 109.985L513.5 0Z" fill="#D9D9D9"/>
<path d="M518.5 0L520.232 1L456.732 110.985L455 109.985L518.5 0Z" fill="#D9D9D9"/>
<path d="M523.5 0L525.232 1L461.732 110.985L460 109.985L523.5 0Z" fill="#D9D9D9"/>
<path d="M528.5 0L530.232 1L466.732 110.985L465 109.985L528.5 0Z" fill="#D9D9D9"/>
<path d="M533.5 0L535.232 1L471.732 110.985L470 109.985L533.5 0Z" fill="#D9D9D9"/>
<path d="M538.5 0L540.232 1L476.732 110.985L475 109.985L538.5 0Z" fill="#D9D9D9"/>
<path d="M543.5 0L545.232 1L481.732 110.985L480 109.985L543.5 0Z" fill="#D9D9D9"/>
<path d="M548.5 0L550.232 1L486.732 110.985L485 109.985L548.5 0Z" fill="#D9D9D9"/>
<path d="M553.5 0L555.232 1L491.732 110.985L490 109.985L553.5 0Z" fill="#D9D9D9"/>
<path d="M558.5 0L560.232 1L496.732 110.985L495 109.985L558.5 0Z" fill="#D9D9D9"/>
<path d="M563.5 0L565.232 1L501.732 110.985L500 109.985L563.5 0Z" fill="#D9D9D9"/>
<path d="M568.5 0L570.232 1L506.732 110.985L505 109.985L568.5 0Z" fill="#D9D9D9"/>
<path d="M573.5 0L575.232 1L511.732 110.985L510 109.985L573.5 0Z" fill="#D9D9D9"/>
<path d="M578.5 0L580.232 1L516.732 110.985L515 109.985L578.5 0Z" fill="#D9D9D9"/>
<path d="M583.5 0L585.232 1L521.732 110.985L520 109.985L583.5 0Z" fill="#D9D9D9"/>
<path d="M588.5 0L590.232 1L526.732 110.985L525 109.985L588.5 0Z" fill="#D9D9D9"/>
<path d="M593.5 0L595.232 1L531.732 110.985L530 109.985L593.5 0Z" fill="#D9D9D9"/>
<path d="M598.5 0L600.232 1L536.732 110.985L535 109.985L598.5 0Z" fill="#D9D9D9"/>
<path d="M603.5 0L605.232 1L541.732 110.985L540 109.985L603.5 0Z" fill="#D9D9D9"/>
<path d="M608.5 0L610.232 1L546.732 110.985L545 109.985L608.5 0Z" fill="#D9D9D9"/>
<path d="M613.5 0L615.232 1L551.732 110.985L550 109.985L613.5 0Z" fill="#D9D9D9"/>
<path d="M618.5 0L620.232 1L556.732 110.985L555 109.985L618.5 0Z" fill="#D9D9D9"/>
<path d="M623.5 0L625.232 1L561.732 110.985L560 109.985L623.5 0Z" fill="#D9D9D9"/>
<path d="M628.5 0L630.232 1L566.732 110.985L565 109.985L628.5 0Z" fill="#D9D9D9"/>
<path d="M633.5 0L635.232 1L571.732 110.985L570 109.985L633.5 0Z" fill="#D9D9D9"/>
<path d="M638.5 0L640.232 1L576.732 110.985L575 109.985L638.5 0Z" fill="#D9D9D9"/>
<path d="M643.5 0L645.232 1L581.732 110.985L580 109.985L643.5 0Z" fill="#D9D9D9"/>
<path d="M648.5 0L650.232 1L586.732 110.985L585 109.985L648.5 0Z" fill="#D9D9D9"/>
<path d="M653.5 0L655.232 1L591.732 110.985L590 109.985L653.5 0Z" fill="#D9D9D9"/>
<path d="M658.5 0L660.232 1L596.732 110.985L595 109.985L658.5 0Z" fill="#D9D9D9"/>
<path d="M663.5 0L665.232 1L601.732 110.985L600 109.985L663.5 0Z" fill="#D9D9D9"/>
<path d="M668.5 0L670.232 1L606.732 110.985L605 109.985L668.5 0Z" fill="#D9D9D9"/>
<path d="M673.5 0L675.232 1L611.732 110.985L610 109.985L673.5 0Z" fill="#D9D9D9"/>
<path d="M678.5 0L680.232 1L616.732 110.985L615 109.985L678.5 0Z" fill="#D9D9D9"/>
<path d="M683.5 0L685.232 1L621.732 110.985L620 109.985L683.5 0Z" fill="#D9D9D9"/>
<path d="M688.5 0L690.232 1L626.732 110.985L625 109.985L688.5 0Z" fill="#D9D9D9"/>
<path d="M693.5 0L695.232 1L631.732 110.985L630 109.985L693.5 0Z" fill="#D9D9D9"/>
<path d="M698.5 0L700.232 1L636.732 110.985L635 109.985L698.5 0Z" fill="#D9D9D9"/>
<path d="M703.5 0L705.232 1L641.732 110.985L640 109.985L703.5 0Z" fill="#D9D9D9"/>
<path d="M708.5 0L710.232 1L646.732 110.985L645 109.985L708.5 0Z" fill="#D9D9D9"/>
<path d="M713.5 0L715.232 1L651.732 110.985L650 109.985L713.5 0Z" fill="#D9D9D9"/>
<path d="M718.5 0L720.232 1L656.732 110.985L655 109.985L718.5 0Z" fill="#D9D9D9"/>
<path d="M723.5 0L725.232 1L661.732 110.985L660 109.985L723.5 0Z" fill="#D9D9D9"/>
<path d="M728.5 0L730.232 1L666.732 110.985L665 109.985L728.5 0Z" fill="#D9D9D9"/>
<path d="M733.5 0L735.232 1L671.732 110.985L670 109.985L733.5 0Z" fill="#D9D9D9"/>
<path d="M738.5 0L740.232 1L676.732 110.985L675 109.985L738.5 0Z" fill="#D9D9D9"/>
<path d="M743.5 0L745.232 1L681.732 110.985L680 109.985L743.5 0Z" fill="#D9D9D9"/>
<path d="M748.5 0L750.232 1L686.732 110.985L685 109.985L748.5 0Z" fill="#D9D9D9"/>
<path d="M753.5 0L755.232 1L691.732 110.985L690 109.985L753.5 0Z" fill="#D9D9D9"/>
<path d="M758.5 0L760.232 1L696.732 110.985L695 109.985L758.5 0Z" fill="#D9D9D9"/>
<path d="M763.5 0L765.232 1L701.732 110.985L700 109.985L763.5 0Z" fill="#D9D9D9"/>
<path d="M768.5 0L770.232 1L706.732 110.985L705 109.985L768.5 0Z" fill="#D9D9D9"/>
<path d="M773.5 0L775.232 1L711.732 110.985L710 109.985L773.5 0Z" fill="#D9D9D9"/>
<path d="M778.5 0L780.232 1L716.732 110.985L715 109.985L778.5 0Z" fill="#D9D9D9"/>
<path d="M783.5 0L785.232 1L721.732 110.985L720 109.985L783.5 0Z" fill="#D9D9D9"/>
<path d="M788.5 0L790.232 1L726.732 110.985L725 109.985L788.5 0Z" fill="#D9D9D9"/>
<path d="M793.5 0L795.232 1L731.732 110.985L730 109.985L793.5 0Z" fill="#D9D9D9"/>
<path d="M798.5 0L800.232 1L736.732 110.985L735 109.985L798.5 0Z" fill="#D9D9D9"/>
<path d="M803.5 0L805.232 1L741.732 110.985L740 109.985L803.5 0Z" fill="#D9D9D9"/>
<path d="M808.5 0L810.232 1L746.732 110.985L745 109.985L808.5 0Z" fill="#D9D9D9"/>
<path d="M813.5 0L815.232 1L751.732 110.985L750 109.985L813.5 0Z" fill="#D9D9D9"/>
<path d="M818.5 0L820.232 1L756.732 110.985L755 109.985L818.5 0Z" fill="#D9D9D9"/>
<path d="M823.5 0L825.232 1L761.732 110.985L760 109.985L823.5 0Z" fill="#D9D9D9"/>
<path d="M828.5 0L830.232 1L766.732 110.985L765 109.985L828.5 0Z" fill="#D9D9D9"/>
<path d="M833.5 0L835.232 1L771.732 110.985L770 109.985L833.5 0Z" fill="#D9D9D9"/>
<path d="M838.5 0L840.232 1L776.732 110.985L775 109.985L838.5 0Z" fill="#D9D9D9"/>
<path d="M843.5 0L845.232 1L781.732 110.985L780 109.985L843.5 0Z" fill="#D9D9D9"/>
<path d="M848.5 0L850.232 1L786.732 110.985L785 109.985L848.5 0Z" fill="#D9D9D9"/>
<path d="M853.5 0L855.232 1L791.732 110.985L790 109.985L853.5 0Z" fill="#D9D9D9"/>
<path d="M858.5 0L860.232 1L796.732 110.985L795 109.985L858.5 0Z" fill="#D9D9D9"/>
<path d="M863.5 0L865.232 1L801.732 110.985L800 109.985L863.5 0Z" fill="#D9D9D9"/>
<path d="M868.5 0L870.232 1L806.732 110.985L805 109.985L868.5 0Z" fill="#D9D9D9"/>
<path d="M873.5 0L875.232 1L811.732 110.985L810 109.985L873.5 0Z" fill="#D9D9D9"/>
<path d="M878.5 0L880.232 1L816.732 110.985L815 109.985L878.5 0Z" fill="#D9D9D9"/>
<path d="M883.5 0L885.232 1L821.732 110.985L820 109.985L883.5 0Z" fill="#D9D9D9"/>
<path d="M888.5 0L890.232 1L826.732 110.985L825 109.985L888.5 0Z" fill="#D9D9D9"/>
</svg>
