<svg width="636" height="6" viewBox="0 0 636 6" fill="none" xmlns="http://www.w3.org/2000/svg">
<path d="M34.9307 6H3C1.34315 6 0 4.65685 0 3C0 1.34315 1.34315 2.41596e-08 3 0H38.3945L34.9307 6ZM39.9307 6H37.2402L40.7051 0H43.3945L39.9307 6ZM44.9307 6H42.2402L45.7051 0H48.3945L44.9307 6ZM49.9307 6H47.2402L50.7051 0H53.3945L49.9307 6ZM54.9307 6H52.2402L55.7051 0H58.3945L54.9307 6ZM59.9307 6H57.2402L60.7051 0H63.3945L59.9307 6ZM64.9307 6H62.2402L65.7051 0H68.3945L64.9307 6ZM69.9307 6H67.2402L70.7051 0H73.3945L69.9307 6ZM74.9307 6H72.2402L75.7051 0H78.3945L74.9307 6ZM79.9307 6H77.2402L80.7051 0H83.3945L79.9307 6ZM84.9307 6H82.2402L85.7051 0H88.3945L84.9307 6ZM89.9307 6H87.2402L90.7051 0H93.3945L89.9307 6ZM94.9307 6H92.2402L95.7051 0H98.3945L94.9307 6ZM99.9307 6H97.2402L100.705 0H103.395L99.9307 6ZM104.931 6H102.24L105.705 0H108.395L104.931 6ZM109.931 6H107.24L110.705 0H113.395L109.931 6ZM114.931 6H112.24L115.705 0H118.395L114.931 6ZM119.931 6H117.24L120.705 0H123.395L119.931 6ZM124.931 6H122.24L125.705 0H128.395L124.931 6ZM129.931 6H127.24L130.705 0H133.395L129.931 6ZM134.931 6H132.24L135.705 0H138.395L134.931 6ZM139.931 6H137.24L140.705 0H143.395L139.931 6ZM144.931 6H142.24L145.705 0H148.395L144.931 6ZM149.931 6H147.24L150.705 0H153.395L149.931 6ZM154.931 6H152.24L155.705 0H158.395L154.931 6ZM159.931 6H157.24L160.705 0H163.395L159.931 6ZM164.931 6H162.24L165.705 0H168.395L164.931 6ZM169.931 6H167.24L170.705 0H173.395L169.931 6ZM174.931 6H172.24L175.705 0H178.395L174.931 6ZM179.931 6H177.24L180.705 0H183.395L179.931 6ZM184.931 6H182.24L185.705 0H188.395L184.931 6ZM189.931 6H187.24L190.705 0H193.395L189.931 6ZM194.931 6H192.24L195.705 0H198.395L194.931 6ZM199.931 6H197.24L200.705 0H203.395L199.931 6ZM204.931 6H202.24L205.705 0H208.395L204.931 6ZM209.931 6H207.24L210.705 0H213.395L209.931 6ZM214.931 6H212.24L215.705 0H218.395L214.931 6ZM219.931 6H217.24L220.705 0H223.395L219.931 6ZM224.931 6H222.24L225.705 0H228.395L224.931 6ZM229.931 6H227.24L230.705 0H233.395L229.931 6ZM234.931 6H232.24L235.705 0H238.395L234.931 6ZM239.931 6H237.24L240.705 0H243.395L239.931 6ZM244.931 6H242.24L245.705 0H248.395L244.931 6ZM249.931 6H247.24L250.705 0H253.395L249.931 6ZM254.931 6H252.24L255.705 0H258.395L254.931 6ZM259.931 6H257.24L260.705 0H263.395L259.931 6ZM264.931 6H262.24L265.705 0H268.395L264.931 6ZM269.931 6H267.24L270.705 0H273.395L269.931 6ZM274.931 6H272.24L275.705 0H278.395L274.931 6ZM279.931 6H277.24L280.705 0H283.395L279.931 6ZM284.931 6H282.24L285.705 0H288.395L284.931 6ZM289.931 6H287.24L290.705 0H293.395L289.931 6ZM294.931 6H292.24L295.705 0H298.395L294.931 6ZM299.931 6H297.24L300.705 0H303.395L299.931 6ZM304.931 6H302.24L305.705 0H308.395L304.931 6ZM309.931 6H307.24L310.705 0H313.395L309.931 6ZM314.931 6H312.24L315.705 0H318.395L314.931 6ZM319.931 6H317.24L320.705 0H323.395L319.931 6ZM324.931 6H322.24L325.705 0H328.395L324.931 6ZM329.931 6H327.24L330.705 0H333.395L329.931 6ZM334.931 6H332.24L335.705 0H338.395L334.931 6ZM339.931 6H337.24L340.705 0H343.395L339.931 6ZM344.931 6H342.24L345.705 0H348.395L344.931 6ZM349.931 6H347.24L350.705 0H353.395L349.931 6ZM354.931 6H352.24L355.705 0H358.395L354.931 6ZM359.931 6H357.24L360.705 0H363.395L359.931 6ZM364.931 6H362.24L365.705 0H368.395L364.931 6ZM369.931 6H367.24L370.705 0H373.395L369.931 6ZM374.931 6H372.24L375.705 0H378.395L374.931 6ZM379.931 6H377.24L380.705 0H383.395L379.931 6ZM384.931 6H382.24L385.705 0H388.395L384.931 6ZM389.931 6H387.24L390.705 0H393.395L389.931 6ZM394.931 6H392.24L395.705 0H398.395L394.931 6ZM399.931 6H397.24L400.705 0H403.395L399.931 6ZM404.931 6H402.24L405.705 0H408.395L404.931 6ZM409.931 6H407.24L410.705 0H413.395L409.931 6ZM414.931 6H412.24L415.705 0H418.395L414.931 6ZM419.931 6H417.24L420.705 0H423.395L419.931 6ZM424.931 6H422.24L425.705 0H428.395L424.931 6ZM429.931 6H427.24L430.705 0H433.395L429.931 6ZM434.931 6H432.24L435.705 0H438.395L434.931 6ZM439.931 6H437.24L440.705 0H443.395L439.931 6ZM444.931 6H442.24L445.705 0H448.395L444.931 6ZM449.931 6H447.24L450.705 0H453.395L449.931 6ZM454.931 6H452.24L455.705 0H458.395L454.931 6ZM459.931 6H457.24L460.705 0H463.395L459.931 6ZM464.931 6H462.24L465.705 0H468.395L464.931 6ZM469.931 6H467.24L470.705 0H473.395L469.931 6ZM474.931 6H472.24L475.705 0H478.395L474.931 6ZM479.931 6H477.24L480.705 0H483.395L479.931 6ZM484.931 6H482.24L485.705 0H488.395L484.931 6ZM489.931 6H487.24L490.705 0H493.395L489.931 6ZM494.931 6H492.24L495.705 0H498.395L494.931 6ZM499.931 6H497.24L500.705 0H503.395L499.931 6ZM504.931 6H502.24L505.705 0H508.395L504.931 6ZM509.931 6H507.24L510.705 0H513.395L509.931 6ZM514.931 6H512.24L515.705 0H518.395L514.931 6ZM519.931 6H517.24L520.705 0H523.395L519.931 6ZM524.931 6H522.24L525.705 0H528.395L524.931 6ZM529.931 6H527.24L530.705 0H533.395L529.931 6ZM534.931 6H532.24L535.705 0H538.395L534.931 6ZM539.931 6H537.24L540.705 0H543.395L539.931 6ZM544.931 6H542.24L545.705 0H548.395L544.931 6ZM549.931 6H547.24L550.705 0H553.395L549.931 6ZM554.931 6H552.24L555.705 0H558.395L554.931 6ZM559.931 6H557.24L560.705 0H563.395L559.931 6ZM564.931 6H562.24L565.705 0H568.395L564.931 6ZM569.931 6H567.24L570.705 0H573.395L569.931 6ZM574.931 6H572.24L575.705 0H578.395L574.931 6ZM579.931 6H577.24L580.705 0H583.395L579.931 6ZM584.931 6H582.24L585.705 0H588.395L584.931 6ZM589.931 6H587.24L590.705 0H593.395L589.931 6ZM594.931 6H592.24L595.705 0H598.395L594.931 6ZM599.931 6H597.24L600.705 0H603.395L599.931 6ZM604.931 6H602.24L605.705 0H608.395L604.931 6ZM609.931 6H607.24L610.705 0H613.395L609.931 6ZM614.931 6H612.24L615.705 0H618.395L614.931 6ZM619.931 6H617.24L620.705 0H623.395L619.931 6ZM624.931 6H622.24L625.705 0H628.395L624.931 6ZM633 0C633.129 3.00278e-07 633.255 0.00868637 633.38 0.0244141L629.931 6H627.24L630.705 0H633ZM635.167 0.929688C635.682 1.46828 636 2.19619 636 3C636 4.65685 634.657 6 633 6H632.24L635.167 0.929688Z" fill="#DEDEDE"/>
<rect width="231.124" height="6" rx="3" fill="#2683EB"/>
</svg>
