<svg width="13" height="13" viewBox="0 0 13 13" fill="none" xmlns="http://www.w3.org/2000/svg">
<path d="M7 0.5V2.5C7 2.63261 6.94732 2.75979 6.85355 2.85355C6.75979 2.94732 6.63261 3 6.5 3C6.36739 3 6.24021 2.94732 6.14645 2.85355C6.05268 2.75979 6 2.63261 6 2.5V0.5C6 0.367392 6.05268 0.240215 6.14645 0.146447C6.24021 0.0526784 6.36739 0 6.5 0C6.63261 0 6.75979 0.0526784 6.85355 0.146447C6.94732 0.240215 7 0.367392 7 0.5ZM12.5 6H10.5C10.3674 6 10.2402 6.05268 10.1464 6.14645C10.0527 6.24021 10 6.36739 10 6.5C10 6.63261 10.0527 6.75979 10.1464 6.85355C10.2402 6.94732 10.3674 7 10.5 7H12.5C12.6326 7 12.7598 6.94732 12.8536 6.85355C12.9473 6.75979 13 6.63261 13 6.5C13 6.36739 12.9473 6.24021 12.8536 6.14645C12.7598 6.05268 12.6326 6 12.5 6ZM9.68188 8.975C9.58734 8.88519 9.46147 8.83586 9.33109 8.83753C9.20071 8.8392 9.07614 8.89174 8.98394 8.98394C8.89174 9.07614 8.8392 9.20071 8.83753 9.33109C8.83586 9.46147 8.88519 9.58734 8.975 9.68188L10.3888 11.0962C10.4826 11.1901 10.6098 11.2428 10.7425 11.2428C10.8752 11.2428 11.0024 11.1901 11.0962 11.0962C11.1901 11.0024 11.2428 10.8752 11.2428 10.7425C11.2428 10.6098 11.1901 10.4826 11.0962 10.3888L9.68188 8.975ZM6.5 10C6.36739 10 6.24021 10.0527 6.14645 10.1464C6.05268 10.2402 6 10.3674 6 10.5V12.5C6 12.6326 6.05268 12.7598 6.14645 12.8536C6.24021 12.9473 6.36739 13 6.5 13C6.63261 13 6.75979 12.9473 6.85355 12.8536C6.94732 12.7598 7 12.6326 7 12.5V10.5C7 10.3674 6.94732 10.2402 6.85355 10.1464C6.75979 10.0527 6.63261 10 6.5 10ZM3.31812 8.975L1.90375 10.3888C1.80993 10.4826 1.75722 10.6098 1.75722 10.7425C1.75722 10.8752 1.80993 11.0024 1.90375 11.0962C1.99757 11.1901 2.12482 11.2428 2.2575 11.2428C2.39018 11.2428 2.51743 11.1901 2.61125 11.0962L4.025 9.68188C4.11481 9.58734 4.16414 9.46147 4.16247 9.33109C4.1608 9.20071 4.10826 9.07614 4.01606 8.98394C3.92386 8.89174 3.79929 8.8392 3.66891 8.83753C3.53853 8.83586 3.41266 8.88519 3.31812 8.975ZM3 6.5C3 6.36739 2.94732 6.24021 2.85355 6.14645C2.75979 6.05268 2.63261 6 2.5 6H0.5C0.367392 6 0.240215 6.05268 0.146447 6.14645C0.0526784 6.24021 0 6.36739 0 6.5C0 6.63261 0.0526784 6.75979 0.146447 6.85355C0.240215 6.94732 0.367392 7 0.5 7H2.5C2.63261 7 2.75979 6.94732 2.85355 6.85355C2.94732 6.75979 3 6.63261 3 6.5ZM2.61125 1.90375C2.51743 1.80993 2.39018 1.75722 2.2575 1.75722C2.12482 1.75722 1.99757 1.80993 1.90375 1.90375C1.80993 1.99757 1.75722 2.12482 1.75722 2.2575C1.75722 2.39018 1.80993 2.51743 1.90375 2.61125L3.31812 4.025C3.41266 4.11481 3.53853 4.16414 3.66891 4.16247C3.79929 4.1608 3.92386 4.10826 4.01606 4.01606C4.10826 3.92386 4.1608 3.79929 4.16247 3.66891C4.16414 3.53853 4.11481 3.41266 4.025 3.31812L2.61125 1.90375Z" fill="black"/>
</svg>
