<svg width="388" height="6" viewBox="0 0 388 6" fill="none" xmlns="http://www.w3.org/2000/svg">
<path d="M6.3916 6H3.70117L7.16504 0H9.85547L6.3916 6Z" fill="#DEDEDE"/>
<path d="M11.3916 6H8.70117L12.165 0H14.8555L11.3916 6Z" fill="#DEDEDE"/>
<path d="M16.3916 6H13.7012L17.165 0H19.8555L16.3916 6Z" fill="#DEDEDE"/>
<path d="M21.3916 6H18.7012L22.165 0H24.8555L21.3916 6Z" fill="#DEDEDE"/>
<path d="M26.3916 6H23.7012L27.165 0H29.8555L26.3916 6Z" fill="#DEDEDE"/>
<path d="M31.3916 6H28.7012L32.165 0H34.8555L31.3916 6Z" fill="#DEDEDE"/>
<path d="M36.3916 6H33.7012L37.165 0H39.8555L36.3916 6Z" fill="#DEDEDE"/>
<path d="M41.3916 6H38.7012L42.165 0H44.8555L41.3916 6Z" fill="#DEDEDE"/>
<path d="M46.3916 6H43.7012L47.165 0H49.8555L46.3916 6Z" fill="#DEDEDE"/>
<path d="M51.3916 6H48.7012L52.165 0H54.8555L51.3916 6Z" fill="#DEDEDE"/>
<path d="M56.3916 6H53.7012L57.165 0H59.8555L56.3916 6Z" fill="#DEDEDE"/>
<path d="M61.3916 6H58.7012L62.165 0H64.8555L61.3916 6Z" fill="#DEDEDE"/>
<path d="M66.3916 6H63.7012L67.165 0H69.8555L66.3916 6Z" fill="#DEDEDE"/>
<path d="M71.3916 6H68.7012L72.165 0H74.8555L71.3916 6Z" fill="#DEDEDE"/>
<path d="M76.3916 6H73.7012L77.165 0H79.8555L76.3916 6Z" fill="#DEDEDE"/>
<path d="M81.3916 6H78.7012L82.165 0H84.8555L81.3916 6Z" fill="#DEDEDE"/>
<path d="M86.3916 6H83.7012L87.165 0H89.8555L86.3916 6Z" fill="#DEDEDE"/>
<path d="M91.3916 6H88.7012L92.165 0H94.8555L91.3916 6Z" fill="#DEDEDE"/>
<path d="M96.3916 6H93.7012L97.165 0H99.8555L96.3916 6Z" fill="#DEDEDE"/>
<path d="M101.392 6H98.7012L102.165 0H104.855L101.392 6Z" fill="#DEDEDE"/>
<path d="M106.392 6H103.701L107.165 0H109.855L106.392 6Z" fill="#DEDEDE"/>
<path d="M111.392 6H108.701L112.165 0H114.855L111.392 6Z" fill="#DEDEDE"/>
<path d="M116.392 6H113.701L117.165 0H119.855L116.392 6Z" fill="#DEDEDE"/>
<path d="M121.392 6H118.701L122.165 0H124.855L121.392 6Z" fill="#DEDEDE"/>
<path d="M126.392 6H123.701L127.165 0H129.855L126.392 6Z" fill="#DEDEDE"/>
<path d="M131.392 6H128.701L132.165 0H134.855L131.392 6Z" fill="#DEDEDE"/>
<path d="M136.392 6H133.701L137.165 0H139.855L136.392 6Z" fill="#DEDEDE"/>
<path d="M141.392 6H138.701L142.165 0H144.855L141.392 6Z" fill="#DEDEDE"/>
<path d="M146.392 6H143.701L147.165 0H149.855L146.392 6Z" fill="#DEDEDE"/>
<path d="M151.392 6H148.701L152.165 0H154.855L151.392 6Z" fill="#DEDEDE"/>
<path d="M156.392 6H153.701L157.165 0H159.855L156.392 6Z" fill="#DEDEDE"/>
<path d="M161.392 6H158.701L162.165 0H164.855L161.392 6Z" fill="#DEDEDE"/>
<path d="M166.392 6H163.701L167.165 0H169.855L166.392 6Z" fill="#DEDEDE"/>
<path d="M171.392 6H168.701L172.165 0H174.855L171.392 6Z" fill="#DEDEDE"/>
<path d="M176.392 6H173.701L177.165 0H179.855L176.392 6Z" fill="#DEDEDE"/>
<path d="M181.392 6H178.701L182.165 0H184.855L181.392 6Z" fill="#DEDEDE"/>
<path d="M186.392 6H183.701L187.165 0H189.855L186.392 6Z" fill="#DEDEDE"/>
<path d="M191.392 6H188.701L192.165 0H194.855L191.392 6Z" fill="#DEDEDE"/>
<path d="M196.392 6H193.701L197.165 0H199.855L196.392 6Z" fill="#DEDEDE"/>
<path d="M201.392 6H198.701L202.165 0H204.855L201.392 6Z" fill="#DEDEDE"/>
<path d="M206.392 6H203.701L207.165 0H209.855L206.392 6Z" fill="#DEDEDE"/>
<path d="M211.392 6H208.701L212.165 0H214.855L211.392 6Z" fill="#DEDEDE"/>
<path d="M216.392 6H213.701L217.165 0H219.855L216.392 6Z" fill="#DEDEDE"/>
<path d="M221.392 6H218.701L222.165 0H224.855L221.392 6Z" fill="#DEDEDE"/>
<path d="M226.392 6H223.701L227.165 0H229.855L226.392 6Z" fill="#DEDEDE"/>
<path d="M231.392 6H228.701L232.165 0H234.855L231.392 6Z" fill="#DEDEDE"/>
<path d="M236.392 6H233.701L237.165 0H239.855L236.392 6Z" fill="#DEDEDE"/>
<path d="M241.392 6H238.701L242.165 0H244.855L241.392 6Z" fill="#DEDEDE"/>
<path d="M246.392 6H243.701L247.165 0H249.855L246.392 6Z" fill="#DEDEDE"/>
<path d="M251.392 6H248.701L252.165 0H254.855L251.392 6Z" fill="#DEDEDE"/>
<path d="M256.392 6H253.701L257.165 0H259.855L256.392 6Z" fill="#DEDEDE"/>
<path d="M261.392 6H258.701L262.165 0H264.855L261.392 6Z" fill="#DEDEDE"/>
<path d="M266.392 6H263.701L267.165 0H269.855L266.392 6Z" fill="#DEDEDE"/>
<path d="M271.392 6H268.701L272.165 0H274.855L271.392 6Z" fill="#DEDEDE"/>
<path d="M276.392 6H273.701L277.165 0H279.855L276.392 6Z" fill="#DEDEDE"/>
<path d="M281.392 6H278.701L282.165 0H284.855L281.392 6Z" fill="#DEDEDE"/>
<path d="M286.392 6H283.701L287.165 0H289.855L286.392 6Z" fill="#DEDEDE"/>
<path d="M291.392 6H288.701L292.165 0H294.855L291.392 6Z" fill="#DEDEDE"/>
<path d="M296.392 6H293.701L297.165 0H299.855L296.392 6Z" fill="#DEDEDE"/>
<path d="M301.392 6H298.701L302.165 0H304.855L301.392 6Z" fill="#DEDEDE"/>
<path d="M306.392 6H303.701L307.165 0H309.855L306.392 6Z" fill="#DEDEDE"/>
<path d="M311.392 6H308.701L312.165 0H314.855L311.392 6Z" fill="#DEDEDE"/>
<path d="M316.392 6H313.701L317.165 0H319.855L316.392 6Z" fill="#DEDEDE"/>
<path d="M321.392 6H318.701L322.165 0H324.855L321.392 6Z" fill="#DEDEDE"/>
<path d="M326.392 6H323.701L327.165 0H329.855L326.392 6Z" fill="#DEDEDE"/>
<path d="M331.392 6H328.701L332.165 0H334.855L331.392 6Z" fill="#DEDEDE"/>
<path d="M336.392 6H333.701L337.165 0H339.855L336.392 6Z" fill="#DEDEDE"/>
<path d="M341.392 6H338.701L342.165 0H344.855L341.392 6Z" fill="#DEDEDE"/>
<path d="M346.392 6H343.701L347.165 0H349.855L346.392 6Z" fill="#DEDEDE"/>
<path d="M351.392 6H348.701L352.165 0H354.855L351.392 6Z" fill="#DEDEDE"/>
<path d="M356.392 6H353.701L357.165 0H359.855L356.392 6Z" fill="#DEDEDE"/>
<path d="M361.392 6H358.701L362.165 0H364.855L361.392 6Z" fill="#DEDEDE"/>
<path d="M366.392 6H363.701L367.165 0H369.855L366.392 6Z" fill="#DEDEDE"/>
<path d="M371.392 6H368.701L372.165 0H374.855L371.392 6Z" fill="#DEDEDE"/>
<path d="M376.392 6H373.701L377.165 0H379.855L376.392 6Z" fill="#DEDEDE"/>
<path d="M381.392 6H378.701L382.165 0H384.855L381.392 6Z" fill="#DEDEDE"/>
<path d="M386.781 0.663086C387.464 1.21297 387.902 2.05485 387.902 3C387.902 4.65685 386.559 6 384.902 6H383.701L386.781 0.663086Z" fill="#DEDEDE"/>
<path d="M1.57227 5.68555C0.800807 5.30273 0.219045 4.60026 0 3.74902L2.10059 0.110352C2.35595 0.0396528 2.62448 0 2.90234 0H4.85547L1.57227 5.68555Z" fill="#DEDEDE"/>
</svg>
