<svg width="24" height="24" viewBox="0 0 24 24" fill="none" xmlns="http://www.w3.org/2000/svg">
<path d="M20.8004 7.79565C21.8412 9.97234 22.0387 12.4574 21.355 14.7712C20.6713 17.085 19.1547 19.0635 17.098 20.3249C15.0413 21.5862 12.5902 22.0411 10.2179 21.6016C7.84557 21.162 5.72013 19.8594 4.25179 17.9449C2.78344 16.0305 2.0763 13.64 2.26682 11.2348C2.45735 8.82963 3.53204 6.58029 5.28348 4.9209C7.03492 3.2615 9.33895 2.30969 11.7509 2.24917C14.1628 2.18864 16.5117 3.02369 18.3442 4.59315L20.4695 2.4669C20.6102 2.32617 20.8011 2.2471 21.0001 2.2471C21.1991 2.2471 21.39 2.32617 21.5307 2.4669C21.6715 2.60763 21.7505 2.7985 21.7505 2.99752C21.7505 3.19654 21.6715 3.38742 21.5307 3.52815L15.7126 9.34721L12.1773 12.8825L9.93198 15.1278C10.5125 15.5118 11.1883 15.7266 11.884 15.7483C12.5796 15.7699 13.2675 15.5976 13.8708 15.2505C14.474 14.9035 14.9688 14.3954 15.2997 13.7831C15.6306 13.1708 15.7846 12.4786 15.7445 11.7838C15.7333 11.5849 15.8016 11.3896 15.9343 11.2411C16.0671 11.0925 16.2534 11.0028 16.4523 10.9916C16.6512 10.9804 16.8464 11.0487 16.995 11.1814C17.1435 11.3142 17.2333 11.5005 17.2445 11.6994C17.305 12.7614 17.0414 13.8167 16.4888 14.7256C15.9361 15.6345 15.1204 16.3541 14.1497 16.789C13.1789 17.224 12.099 17.3538 11.0528 17.1613C10.0067 16.9687 9.04366 16.463 8.29136 15.711C7.35571 14.7718 6.81 13.5135 6.76379 12.1886C6.71758 10.8637 7.1743 9.5704 8.04224 8.56835C8.91018 7.5663 10.1251 6.92969 11.443 6.78636C12.7609 6.64304 14.0842 7.0036 15.1473 7.79565L17.2782 5.66096C15.7152 4.36327 13.7279 3.6888 11.6979 3.76709C9.66793 3.84539 7.73844 4.67092 6.28003 6.08515C4.82163 7.49937 3.93715 9.40256 3.79646 11.4292C3.65578 13.4558 4.26881 15.4629 5.51782 17.0651C6.76683 18.6673 8.56375 19.7515 10.5634 20.1095C12.5631 20.4675 14.6246 20.0741 16.3519 19.0049C18.0792 17.9356 19.3506 16.2658 19.9218 14.3163C20.493 12.3667 20.3238 10.2749 19.4467 8.44252C19.3609 8.263 19.3499 8.05676 19.4162 7.86917C19.4825 7.68157 19.6206 7.52799 19.8001 7.44221C19.9796 7.35643 20.1859 7.34547 20.3735 7.41176C20.5611 7.47804 20.7146 7.61613 20.8004 7.79565Z" fill="#0A0A0A"/>
</svg>
